# File created by Blade
# Date/Time:  Tue Jan 27 18:50:05 2015
# Frame Rate: 120.000 fps
#------------------------------------------------------
:FULLY-SPECIFIED
:DEGREES
2448
root 0.510892 31.892768 -6.066007 26.654220 -46.994706 -26.939212
Spine 8.904050 9.941244 6.691320
Head 2.158773 -22.078405 14.299877
LeftShoulder -13.084003 12.606694 16.787004
LeftArm 33.271747 1.783580 -78.002033
LeftForeArm -29.344143 -0.000000 139.077965
LeftHand -15.269473 -0.000000 -10.618828
LeftHandThumb1 -26.253704 0.000000 33.147579
RightShoulder 5.200653 18.847800 -8.486915
RightArm 49.032011 -65.910383 65.230294
RightForeArm -11.198471 -0.000000 66.762305
RightHand -6.687179 -0.000000 5.994893
RightHandThumb1 -24.326973 -0.000000 -32.862282
LeftUpLeg -16.779771 14.557774 2.176520
LeftLeg 25.193155 -0.000000 -0.000000
LeftFoot -42.791817 35.077309 -32.203890
LeftToeBase 6.380049 -0.000000 -0.000000
RightUpLeg -72.738491 -48.966203 9.302545
RightLeg 89.225336 -0.000000 -0.000000
RightFoot -17.888076 -26.879078 21.211043
RightToeBase 13.655334 -0.000000 -0.000000
2449
root 0.521247 31.895179 -6.059004 26.753715 -47.061103 -26.944754
Spine 8.906075 9.896393 6.689008
Head 1.835910 -21.820755 14.433147
LeftShoulder -13.070632 12.507523 16.860073
LeftArm 33.413150 1.795215 -77.909308
LeftForeArm -29.427424 -0.000000 138.820440
LeftHand -15.339610 -0.000000 -10.535372
LeftHandThumb1 -26.253704 0.000000 33.147579
RightShoulder 5.192156 18.807430 -8.530960
RightArm 48.487611 -65.699328 65.814159
RightForeArm -11.495766 -0.000000 66.827119
RightHand -6.742922 -0.000000 6.282155
RightHandThumb1 -24.326973 -0.000000 -32.862282
LeftUpLeg -16.851186 14.713878 2.103114
LeftLeg 25.127836 -0.000000 -0.000000
LeftFoot -42.633650 35.166050 -31.954964
LeftToeBase 6.440900 -0.000000 -0.000000
RightUpLeg -72.719930 -49.027724 9.426000
RightLeg 89.236884 -0.000000 -0.000000
RightFoot -17.980069 -26.827889 21.460113
RightToeBase 13.844003 -0.000000 -0.000000
2450
root 0.533243 31.896125 -6.054059 26.837757 -47.105936 -26.925198
Spine 8.910954 9.855089 6.681212
Head 1.527372 -21.487725 14.602545
LeftShoulder -13.027050 12.443826 16.935490
LeftArm 33.628108 1.837938 -77.760453
LeftForeArm -29.365660 -0.000000 138.600911
LeftHand -15.470868 -0.000000 -10.396162
LeftHandThumb1 -26.253704 0.000000 33.147579
RightShoulder 5.201940 18.818521 -8.588745
RightArm 47.317072 -65.397692 67.098094
RightForeArm -12.010008 -0.000000 66.798572
RightHand -6.620709 -0.000000 6.774757
RightHandThumb1 -24.326973 -0.000000 -32.862282
LeftUpLeg -16.945867 14.896105 2.016591
LeftLeg 25.092879 -0.000000 -0.000000
LeftFoot -42.451824 35.096333 -31.751971
LeftToeBase 6.368186 -0.000000 -0.000000
RightUpLeg -72.651779 -49.077422 9.511269
RightLeg 89.224665 -0.000000 -0.000000
RightFoot -17.993679 -26.777603 21.559857
RightToeBase 13.978868 -0.000000 -0.000000
2451
root 0.545870 31.897603 -6.052492 26.930827 -47.129056 -26.916311
Spine 8.931636 9.799069 6.680787
Head 1.211455 -21.165156 14.780084
LeftShoulder -12.979814 12.289050 17.060704
LeftArm 33.751119 1.925208 -77.653521
LeftForeArm -29.256388 -0.000000 138.392512
LeftHand -15.502848 -0.000000 -10.316869
LeftHandThumb1 -26.253704 0.000000 33.147579
RightShoulder 5.150589 18.837784 -8.635176
RightArm 46.766315 -65.182571 67.694913
RightForeArm -12.147076 -0.000000 66.803789
RightHand -6.583573 -0.000000 7.026300
RightHandThumb1 -24.326973 -0.000000 -32.862282
LeftUpLeg -17.060281 15.092039 1.948304
LeftLeg 25.083580 -0.000000 -0.000000
LeftFoot -42.289568 34.929055 -31.596004
LeftToeBase 6.275861 -0.000000 -0.000000
RightUpLeg -72.510806 -49.097299 9.556696
RightLeg 89.207417 -0.000000 -0.000000
RightFoot -18.012131 -26.641686 21.517321
RightToeBase 14.192798 -0.000000 -0.000000
2452
root 0.559821 31.898777 -6.052385 27.006370 -47.127946 -26.889194
Spine 8.960065 9.712662 6.687099
Head 0.915950 -20.838833 14.937305
LeftShoulder -12.958199 12.135841 17.177166
LeftArm 33.956098 2.030150 -77.533430
LeftForeArm -29.136755 -0.000000 138.121367
LeftHand -15.567320 -0.000000 -9.964269
LeftHandThumb1 -26.253704 0.000000 33.147579
RightShoulder 5.120772 18.795023 -8.711838
RightArm 46.539098 -64.966093 67.984626
RightForeArm -12.306755 -0.000000 66.800148
RightHand -6.661871 -0.000000 6.970336
RightHandThumb1 -24.326973 -0.000000 -32.862282
LeftUpLeg -17.180782 15.270060 1.874363
LeftLeg 25.080731 -0.000000 -0.000000
LeftFoot -42.141763 34.645916 -31.542310
LeftToeBase 6.086209 -0.000000 -0.000000
RightUpLeg -72.384366 -49.129618 9.634310
RightLeg 89.146721 -0.000000 -0.000000
RightFoot -18.108441 -26.652868 21.471414
RightToeBase 14.363446 -0.000000 -0.000000
2453
root 0.576414 31.898812 -6.056015 27.070991 -47.113818 -26.843454
Spine 8.961497 9.676512 6.692937
Head 0.726259 -20.611351 15.055985
LeftShoulder -12.815087 12.100730 17.292159
LeftArm 34.272140 2.086040 -77.378967
LeftForeArm -28.878343 0.000000 137.871607
LeftHand -15.634779 -0.000000 -9.591386
LeftHandThumb1 -26.253704 0.000000 33.147579
RightShoulder 5.098816 18.847644 -8.742243
RightArm 45.679107 -64.691453 68.876766
RightForeArm -12.516349 -0.000000 66.806545
RightHand -6.680420 -0.000000 7.200298
RightHandThumb1 -24.326973 -0.000000 -32.862282
LeftUpLeg -17.318902 15.427447 1.800345
LeftLeg 25.086649 -0.000000 -0.000000
LeftFoot -41.965482 34.511767 -31.363644
LeftToeBase 6.016543 -0.000000 -0.000000
RightUpLeg -72.259488 -49.147446 9.694232
RightLeg 89.095373 -0.000000 -0.000000
RightFoot -18.248373 -26.606823 21.724060
RightToeBase 14.225834 -0.000000 -0.000000
2454
root 0.593871 31.898212 -6.060569 27.128487 -47.083261 -26.781749
Spine 8.976423 9.600597 6.699780
Head 0.497503 -20.365609 15.159290
LeftShoulder -12.683043 11.937444 17.420314
LeftArm 34.456853 2.105987 -77.200632
LeftForeArm -28.812967 -0.000000 137.634742
LeftHand -15.733048 0.000000 -9.277142
LeftHandThumb1 -26.253704 0.000000 33.147579
RightShoulder 5.105319 18.819939 -8.818196
RightArm 45.298391 -64.409116 69.318937
RightForeArm -12.561932 -0.000000 66.782034
RightHand -6.720253 -0.000000 7.077531
RightHandThumb1 -24.326973 -0.000000 -32.862282
LeftUpLeg -17.474210 15.582357 1.704771
LeftLeg 25.103660 -0.000000 -0.000000
LeftFoot -41.812120 34.327572 -31.228917
LeftToeBase 5.893226 -0.000000 -0.000000
RightUpLeg -72.092762 -49.156924 9.708646
RightLeg 89.069475 -0.000000 -0.000000
RightFoot -18.429100 -26.495551 21.830791
RightToeBase 14.437148 -0.000000 -0.000000
